<svg width="144" height="23" viewBox="0 0 144 23" fill="none" xmlns="http://www.w3.org/2000/svg">
<g clip-path="url(#clip0_2674_147)">
<path fill-rule="evenodd" clip-rule="evenodd" d="M53.2839 16.7907C54.1696 16.1185 54.7795 15.2423 55.1139 14.1613H52.5801C52.3455 14.6394 52.0229 15.0159 51.6007 15.2898C51.0845 15.6259 50.4805 15.7942 49.7884 15.7942C48.8558 15.7942 48.0875 15.4962 47.4834 14.9004C46.8793 14.305 46.5626 13.4611 46.5391 12.369H55.325V11.4065C55.325 9.6042 54.8089 8.15318 53.7766 7.05348C52.7444 5.95378 51.3954 5.40422 49.7238 5.40422C48.023 5.40422 46.6564 5.9749 45.6125 7.11683C44.5685 8.25876 44.0465 9.76842 44.0465 11.6476C44.0465 13.5338 44.5685 15.0476 45.6125 16.1895C46.6564 17.3308 48.0347 17.9015 49.7473 17.9015C51.1315 17.9015 52.3103 17.5314 53.2839 16.7907ZM47.5714 8.26226C48.1521 7.71622 48.8734 7.4435 49.7238 7.4435C50.586 7.4435 51.3016 7.71622 51.8763 8.26226C52.4452 8.8083 52.7678 9.58542 52.8323 10.5936H46.5626C46.6506 9.58542 46.9849 8.8083 47.5714 8.26226ZM22.8267 5.65642H18.8913C18.2637 5.65642 17.7124 5.80305 17.2373 6.09747C16.7622 6.39131 16.4162 6.76375 16.1874 7.21418L15.8942 5.65642H13.6479V17.6728H16.1112V11.2693C16.1112 9.06226 16.9909 7.95846 18.7563 7.95846H20.3868V7.95904L22.8267 7.95025V5.65642ZM22.9675 3.45232V0.726827L22.2519 0.00484848H19.5247V2.73328L20.2402 3.45232H22.9675ZM0.0115967 0.970823V17.6728H2.59222V11.8077H6.48665C8.13473 11.8077 9.47193 11.298 10.4983 10.2781C11.5247 9.25874 12.0408 7.96256 12.0408 6.38955C12.0408 4.82358 11.5306 3.52916 10.5042 2.50571C9.47783 1.48284 8.1406 0.970823 6.48665 0.970823H0.0115967ZM6.28721 9.50508H2.59222L0.515969 9.50684L2.59222 8.37077V3.3192H6.28721C7.26668 3.3192 8.02329 3.59838 8.56874 4.15556C9.1142 4.71332 9.38395 5.46522 9.38395 6.41243C9.38395 7.36668 9.11417 8.12092 8.57459 8.67458C8.035 9.22824 7.27254 9.50508 6.28721 9.50508ZM22.8267 17.6728V7.95611L20.3868 9.30566V17.6728H22.8267ZM41.2312 6.68163C40.4219 5.84527 39.3955 5.4271 38.1403 5.4271C37.372 5.4271 36.6624 5.60833 36.0055 5.97138C35.3486 6.33384 34.8677 6.87811 34.551 7.60362C34.2225 6.88573 33.7416 6.3438 33.1023 5.97723C32.463 5.61067 31.724 5.4271 30.8794 5.4271C30.1932 5.4271 29.5774 5.56258 29.0378 5.83354C28.4982 6.1051 28.0818 6.49981 27.7827 7.01946L27.4953 5.65642H25.2783V17.6728H27.7182V10.708C27.7182 9.7608 27.9469 9.03177 28.4043 8.51975C28.8618 8.00831 29.4953 7.75259 30.2988 7.75259C31.0437 7.75259 31.6184 8.00831 32.029 8.51975C32.4454 9.03177 32.6507 9.79892 32.6507 10.8224V17.6728H35.0436V10.7309C35.0729 9.74554 35.3193 9.00303 35.7826 8.50274C36.246 8.00245 36.8442 7.75259 37.5715 7.75259C38.3281 7.75259 38.9146 7.9913 39.331 8.46871C39.7474 8.94554 39.9585 9.67693 39.9585 10.6623V17.6728H42.4395V10.1925C42.4395 8.68808 42.0348 7.5174 41.2312 6.68163ZM99.8997 0.961544H101.133V17.6115H99.8997V0.961544ZM62.5364 17.6113L64.076 13.3906H64.0873L67.8451 3.20019L71.6085 13.3906H71.6199L73.1595 17.6113H74.5508L68.6319 1.64064H67.1095L61.1621 17.6113H62.5364ZM84.5349 7.27613C83.7765 6.4151 82.7273 5.984 81.393 5.984C80.5377 5.984 79.785 6.16591 79.135 6.52971C78.4849 6.89351 78.0002 7.42438 77.6809 8.12232L77.4928 6.20697H76.472V17.6113H77.7037V11.3634C77.7037 10.1306 78.0059 9.1339 78.616 8.37323C79.2205 7.61199 80.0815 7.23165 81.1934 7.23165C82.1799 7.23165 82.9611 7.55097 83.5427 8.18962C84.1244 8.82769 84.4152 9.77083 84.4152 11.0179V17.6113H85.681V10.7733C85.681 9.30324 85.299 8.13716 84.5349 7.27613ZM97.6111 16.5422H97.9818V17.6113H97.1321C96.6759 17.6113 96.2996 17.4813 95.986 17.2213C95.6781 16.9618 95.5127 16.5348 95.4842 15.9406C95.1649 16.4977 94.646 16.9522 93.9276 17.3051C93.2034 17.6575 92.405 17.8337 91.5155 17.8337C90.3123 17.8337 89.3544 17.5224 88.653 16.8986C87.946 16.2747 87.5924 15.432 87.5924 14.3702C87.5924 13.9026 87.6608 13.4829 87.8034 13.1117C87.946 12.7405 88.174 12.399 88.4877 12.0871C88.7956 11.7751 89.2346 11.5339 89.8048 11.3634C90.3694 11.1924 91.0479 11.1074 91.8234 11.1074H95.4842V10.4277C95.4842 9.28444 95.2048 8.44736 94.646 7.91648C94.0929 7.38561 93.3402 7.12046 92.388 7.12046C91.4699 7.12046 90.74 7.32972 90.204 7.7494C89.668 8.16908 89.3715 8.75756 89.3145 9.5148H88.0315C88.1227 8.38634 88.5675 7.51562 89.3715 6.9032C90.1812 6.29022 91.1962 5.984 92.4336 5.984C93.8363 5.984 94.9026 6.37745 95.6382 7.16492C96.3738 7.95183 96.7387 9.02442 96.7387 10.3832V15.562C96.7387 15.9554 96.7957 16.2171 96.9098 16.3471C97.0238 16.4772 97.2576 16.5422 97.6111 16.5422ZM91.6238 16.6978C92.1199 16.6978 92.5932 16.622 93.038 16.4698C93.4827 16.3175 93.8933 16.0894 94.2639 15.7849C94.6403 15.4804 94.9311 15.0681 95.1535 14.5487C95.3759 14.0286 95.4842 13.4385 95.4842 12.7776V12.2097H91.8234C89.8733 12.2097 88.8982 12.9372 88.8982 14.3924C88.8982 15.1349 89.1491 15.7051 89.6395 16.102C90.1299 16.4994 90.7913 16.6978 91.6238 16.6978ZM104.474 6.20698L108.346 17.0434L111.9 6.24696V6.20699H111.914L111.921 6.18473L113.13 6.20464C113.419 6.19075 113.625 6.11522 113.754 5.9789C113.896 5.82665 113.965 5.58317 113.965 5.24902V3.28917H115.208V6.20699H117.802V7.38734H115.208V14.9159C115.208 15.9035 115.67 16.3974 116.582 16.3974H117.774V17.6114H116.399C115.67 17.6114 115.082 17.3958 114.637 16.9653C114.187 16.5348 113.965 15.8739 113.965 14.9826V7.38734H112.866L108.699 19.4822C108.334 20.5217 107.889 21.2311 107.365 21.6097C106.84 21.9883 106.162 22.1776 105.323 22.1776H103.379V20.9636H105.369C106.036 20.9636 106.549 20.7703 106.92 20.3843C107.291 19.9983 107.473 19.4303 107.473 18.6805C107.473 18.3389 107.41 17.9826 107.285 17.6113L103.083 6.20698H104.474ZM119.797 2.87519V1.64067H121.029V2.87519H119.797ZM119.797 17.6114V6.20699H121.029V17.6114H119.797ZM131.399 16.7201C132.163 16.1082 132.716 15.3151 133.064 14.3411H131.69C131.393 14.9843 130.983 15.5027 130.464 15.8961C129.814 16.3865 129.061 16.6311 128.211 16.6311C127.043 16.6311 126.09 16.2211 125.355 15.4006C124.625 14.5801 124.254 13.4088 124.254 11.8869C124.254 10.357 124.625 9.18065 125.355 8.35612C126.09 7.53215 127.043 7.12046 128.211 7.12046C129.027 7.12046 129.751 7.35025 130.378 7.81042C131.006 8.27115 131.473 8.91322 131.787 9.73719H133.178C132.824 8.55683 132.209 7.63594 131.336 6.97562C130.469 6.31474 129.42 5.984 128.189 5.984C126.615 5.984 125.349 6.52458 124.391 7.60457C123.427 8.68514 122.948 10.1124 122.948 11.8869C122.948 13.6614 123.427 15.0887 124.391 16.1693C125.349 17.2492 126.615 17.7892 128.189 17.7892C129.437 17.7892 130.509 17.4328 131.399 16.7201ZM135.156 14.348H136.462C136.49 15.0978 136.787 15.6811 137.351 16.0968C137.916 16.5125 138.674 16.7201 139.621 16.7201C140.579 16.7201 141.337 16.529 141.896 16.147C142.46 15.7644 142.74 15.2278 142.74 14.5373C142.74 13.9585 142.592 13.5109 142.289 13.1956C141.993 12.8797 141.52 12.6778 140.864 12.5883L138.537 12.2319C137.494 12.0688 136.718 11.7404 136.211 11.2466C135.698 10.7527 135.441 10.0605 135.441 9.16925C135.441 8.21128 135.823 7.44149 136.582 6.85815C137.34 6.27539 138.309 5.984 139.495 5.984C140.761 5.984 141.788 6.2868 142.575 6.8918C143.356 7.4968 143.761 8.35612 143.778 9.47033H142.518C142.495 8.71251 142.21 8.12803 141.662 7.71576C141.121 7.30407 140.402 7.09764 139.518 7.09764C138.657 7.09764 137.967 7.27955 137.448 7.64335C136.929 8.00714 136.667 8.51578 136.667 9.16925C136.667 9.71894 136.832 10.1437 137.163 10.4448C137.5 10.7453 138.036 10.9438 138.771 11.0407L141.081 11.4079C142.067 11.5636 142.797 11.8812 143.282 12.3602C143.761 12.8392 144.006 13.524 144.006 14.4147C144.006 15.4764 143.595 16.3118 142.78 16.9208C141.964 17.5298 140.927 17.8337 139.666 17.8337C138.264 17.8337 137.169 17.5224 136.382 16.8986C135.601 16.2747 135.19 15.4245 135.156 14.348Z" fill="#0D0D0D"/>
<path fill-rule="evenodd" clip-rule="evenodd" d="M19.5227 0.00759888V2.73201L20.2413 3.45052H22.9653V0.726108H20.2413L19.5227 0.00759888Z" fill="#12DCD3" fill-opacity="0.4"/>
<path fill-rule="evenodd" clip-rule="evenodd" d="M22.9652 0.725455L22.247 0.00484467H19.5225L20.2407 0.723071L22.9652 0.725455Z" fill="#12DCD3" fill-opacity="0.4"/>
<path fill-rule="evenodd" clip-rule="evenodd" d="M20.2407 0.723114V3.44756H22.9652V0.725499L20.2407 0.723114Z" fill="#12DCD3"/>
</g>
<defs>
<clipPath id="clip0_2674_147">
<rect width="144" height="22.2111" fill="white"/>
</clipPath>
</defs>
</svg>
